<svg viewBox="0 0 24 24" fill="none" xmlns="http://www.w3.org/2000/svg"><path d="M20.809 12.203c0-.593-.053-1.155-.143-1.703h-8.475v3.383h4.853c-.218 1.11-.855 2.047-1.8 2.684v2.25h2.895c1.695-1.567 2.67-3.877 2.67-6.614Z" fill="#4285F4"></path><path d="M12.191 21c2.43 0 4.463-.81 5.948-2.183l-2.895-2.25c-.81.54-1.838.87-3.053.87-2.347 0-4.335-1.582-5.047-3.72H4.159v2.318C5.636 18.975 8.674 21 12.19 21Z" fill="#34A853"></path><path d="M7.144 13.717A5.223 5.223 0 0 1 6.859 12c0-.6.105-1.178.285-1.717V7.965H4.159a8.896 8.896 0 0 0 0 8.07l2.985-2.318Z" fill="#FBBC05"></path><path d="M12.191 6.563c1.328 0 2.513.457 3.45 1.35l2.565-2.566C16.654 3.893 14.621 3 12.191 3 8.674 3 5.636 5.025 4.16 7.965l2.985 2.318c.712-2.138 2.7-3.72 5.047-3.72Z" fill="#EA4335"></path></svg>